<?xml version="1.0" standalone="no"?>
<!DOCTYPE svg PUBLIC "-//W3C//DTD SVG 20010904//EN"
 "http://www.w3.org/TR/2001/REC-SVG-20010904/DTD/svg10.dtd">
<svg version="1.0" xmlns="http://www.w3.org/2000/svg"
 width="190.000000pt" height="190.000000pt" viewBox="0 0 190.000000 190.000000"
 preserveAspectRatio="xMidYMid meet">
<metadata>
Created by potrace 1.14, written by Peter Selinger 2001-2017
</metadata>
<g transform="translate(0.000000,190.000000) scale(0.100000,-0.100000)"
fill="#000000" stroke="none">
<path d="M20 1270 c0 -17 7 -20 44 -20 l43 0 -1 -75 c-2 -72 -1 -75 21 -75 25
0 25 1 26 93 l0 57 48 0 c42 0 49 3 49 20 0 19 -7 20 -115 20 -108 0 -115 -1
-115 -20z"/>
<path d="M295 1276 c-29 -21 -30 -142 -1 -162 26 -18 82 -18 89 0 8 19 -1 26
-35 26 -18 0 -28 5 -29 15 -5 88 -4 90 31 95 22 3 34 11 36 23 2 13 -5 17 -35
17 -20 0 -46 -6 -56 -14z"/>
<path d="M400 1271 c0 -15 8 -21 32 -23 33 -3 34 -5 29 -93 -1 -10 -11 -15
-31 -15 -23 0 -30 -4 -30 -20 0 -17 7 -20 38 -20 57 1 67 15 68 95 0 80 -10
94 -68 95 -31 0 -38 -4 -38 -19z"/>
<path d="M562 1195 c1 -92 2 -95 24 -95 19 0 22 5 21 33 -2 29 1 32 31 35 24
2 32 8 32 23 0 14 -7 19 -29 19 -16 0 -31 6 -34 14 -8 19 1 26 35 26 21 0 28
5 28 20 0 18 -7 20 -54 20 l-55 0 1 -95z"/>
<path d="M684 1273 c2 -12 13 -19 34 -21 24 -2 32 -8 32 -23 0 -15 -7 -19 -33
-19 -26 0 -33 -4 -33 -20 0 -16 7 -20 34 -20 54 0 72 15 72 60 0 45 -18 60
-73 60 -28 0 -35 -4 -33 -17z"/>
<path d="M932 1272 c-15 -15 -18 -33 -17 -87 1 -75 8 -83 73 -84 26 -1 32 3
32 19 0 16 -7 20 -30 20 -16 0 -30 5 -31 10 0 6 -1 24 -1 40 0 56 1 59 34 62
21 2 32 9 34 21 3 25 -69 24 -94 -1z"/>
<path d="M1040 1270 c0 -15 7 -20 29 -20 24 0 29 -5 32 -27 2 -16 3 -40 1 -55
-3 -23 -8 -28 -32 -28 -26 0 -46 -21 -33 -34 11 -11 78 -6 93 7 20 15 20 138
0 162 -7 9 -28 15 -51 15 -32 0 -39 -3 -39 -20z"/>
<path d="M1203 1198 c2 -86 4 -93 23 -96 18 -3 21 2 19 33 -3 34 -1 35 31 35
27 0 34 4 34 20 0 16 -7 20 -34 20 -27 0 -34 4 -32 18 2 11 13 18 34 20 24 2
32 8 32 23 0 16 -7 19 -54 19 l-55 0 2 -92z"/>
<path d="M1324 1273 c2 -14 14 -19 54 -21 47 -3 52 -1 52 17 0 19 -6 21 -54
21 -46 0 -54 -3 -52 -17z"/>
<path d="M1324 1193 c2 -11 13 -19 29 -21 22 -3 27 1 27 17 0 16 -6 21 -29 21
-22 0 -29 -4 -27 -17z"/>
<path d="M56 975 c-8 -9 -19 -32 -23 -53 -11 -57 -7 -245 7 -286 12 -36 12
-36 70 -36 48 0 64 5 89 26 42 35 49 81 20 131 l-23 40 22 28 c26 33 27 55 5
102 -26 56 -129 85 -167 48z m127 -33 c36 -32 40 -60 13 -106 -22 -38 -23 -45
-11 -67 30 -52 33 -64 21 -94 -15 -36 -48 -55 -97 -55 -26 0 -39 5 -44 18 -12
29 -18 175 -10 246 5 56 10 69 28 75 31 11 77 4 100 -17z"/>
<path d="M79 810 c-4 -32 -3 -40 6 -40 5 0 11 11 12 25 2 23 -15 37 -18 15z"/>
<path d="M312 872 c-27 -27 -25 -138 3 -158 25 -18 81 -18 88 0 8 19 -1 26
-34 26 -24 0 -27 4 -31 38 -5 62 0 72 37 72 26 0 33 4 31 18 -4 26 -69 29 -94
4z"/>
<path d="M420 870 c0 -16 7 -20 30 -20 22 0 30 -5 31 -17 0 -10 1 -35 2 -56 2
-36 1 -37 -30 -37 -26 0 -33 -4 -33 -20 0 -17 7 -20 38 -20 55 0 69 21 68 96
-2 75 -15 94 -67 94 -32 0 -39 -3 -39 -20z"/>
<path d="M582 795 c0 -91 0 -95 22 -95 21 0 22 4 21 65 -1 36 1 65 4 65 3 0
18 -12 33 -27 l28 -27 0 25 c0 31 -57 89 -87 89 -20 0 -21 -5 -21 -95z"/>
<path d="M768 823 c-3 -59 -5 -65 -18 -52 -8 8 -23 20 -33 28 -15 12 -17 11
-17 -8 0 -27 63 -91 90 -91 19 0 20 6 20 95 0 88 -2 95 -20 95 -17 0 -19 -8
-22 -67z"/>
<path d="M849 873 c-10 -12 -15 -42 -14 -93 0 -71 1 -75 23 -78 18 -3 23 1 22
15 -5 45 0 53 30 53 23 0 30 4 30 20 0 16 -7 20 -30 20 -23 0 -30 4 -30 20 0
16 7 20 30 20 23 0 30 4 30 20 0 17 -7 20 -38 20 -25 0 -44 -6 -53 -17z"/>
<path d="M957 876 c-8 -19 1 -26 35 -26 21 0 28 -5 28 -20 0 -16 -7 -20 -34
-20 -48 0 -44 -33 5 -40 32 -5 34 -7 31 -37 -3 -29 -1 -33 20 -33 23 0 24 2
23 81 -1 68 -4 83 -20 95 -25 18 -81 18 -88 0z"/>
<path d="M1122 795 c1 -91 3 -96 22 -93 18 3 21 10 22 58 1 30 2 59 3 64 0 6
15 -3 31 -19 l30 -29 0 26 c0 29 -59 88 -89 88 -19 0 -20 -7 -19 -95z"/>
<path d="M1308 823 c-3 -59 -5 -65 -18 -52 -8 8 -23 20 -33 28 -15 12 -17 11
-17 -8 0 -26 65 -91 91 -91 17 0 19 8 19 95 0 88 -2 95 -20 95 -17 0 -19 -8
-22 -67z"/>
<path d="M1397 884 c-3 -3 -3 -12 0 -20 3 -9 21 -14 54 -14 42 0 49 3 49 20 0
17 -7 20 -48 20 -27 0 -51 -3 -55 -6z"/>
<path d="M1513 870 c-1 -11 3 -20 8 -20 6 0 7 -6 2 -12 -10 -16 -12 -58 -3
-58 4 0 22 17 41 38 68 77 68 72 7 72 -47 0 -54 -3 -55 -20z"/>
<path d="M1659 873 c-10 -13 -15 -41 -14 -93 0 -70 2 -75 23 -78 19 -3 22 1
22 32 0 33 3 36 28 36 34 0 43 7 35 26 -3 8 -18 14 -34 14 -22 0 -29 5 -29 20
0 15 7 20 29 20 27 0 47 20 34 34 -14 14 -80 5 -94 -11z"/>
<path d="M1767 870 c-4 -17 0 -20 29 -20 27 0 34 -4 34 -20 0 -16 -7 -20 -30
-20 -23 0 -30 -4 -30 -20 0 -16 7 -20 30 -20 30 0 35 -8 30 -53 -1 -14 4 -18
21 -15 21 3 23 8 24 85 1 77 0 82 -22 92 -40 18 -80 14 -86 -9z"/>
<path d="M1441 759 l-54 -59 55 0 55 0 1 60 c0 33 0 59 -1 59 -1 -1 -26 -28
-56 -60z"/>
<path d="M1519 738 c-10 -35 -7 -38 47 -38 47 0 54 2 54 20 0 17 -7 20 -50 20
-27 0 -50 -1 -51 -2z"/>
</g>
</svg>
